<mxfile host="Electron" modified="2024-01-08T03:36:16.809Z" agent="Mozilla/5.0 (X11; Linux x86_64) AppleWebKit/537.36 (KHTML, like Gecko) draw.io/22.1.16 Chrome/120.0.6099.109 Electron/28.1.0 Safari/537.36" etag="8CxUPOrvyBXoZy7yjz48" version="22.1.16" type="device">
  <diagram name="Page-1" id="lv2RBA-2qfxnkMvO_x3A">
    <mxGraphModel dx="584" dy="907" grid="1" gridSize="10" guides="1" tooltips="1" connect="1" arrows="1" fold="1" page="1" pageScale="1" pageWidth="850" pageHeight="1100" math="0" shadow="0">
      <root>
        <mxCell id="0" />
        <mxCell id="1" parent="0" />
        <mxCell id="MEt0MIwIxQcFvyBTdbw6-34" style="edgeStyle=orthogonalEdgeStyle;shape=connector;curved=0;rounded=0;orthogonalLoop=1;jettySize=auto;html=1;exitX=0;exitY=0.5;exitDx=0;exitDy=0;labelBackgroundColor=default;strokeColor=#666666;strokeWidth=3;align=center;verticalAlign=middle;fontFamily=Helvetica;fontSize=11;fontColor=default;endArrow=none;endFill=0;startArrow=openThin;startFill=0;" parent="1" source="MEt0MIwIxQcFvyBTdbw6-35" edge="1">
          <mxGeometry relative="1" as="geometry">
            <mxPoint x="1002.69" y="426" as="targetPoint" />
          </mxGeometry>
        </mxCell>
        <mxCell id="MEt0MIwIxQcFvyBTdbw6-35" value="&lt;b style=&quot;border-color: var(--border-color);&quot;&gt;&lt;font style=&quot;border-color: var(--border-color);&quot; color=&quot;#666666&quot;&gt;application:&lt;/font&gt;&lt;/b&gt;" style="rounded=1;whiteSpace=wrap;html=1;strokeColor=#666666;fontFamily=Helvetica;fontSize=12;fontColor=#143642;fillColor=#ffffff;arcSize=50;fontStyle=0;shadow=0;labelBackgroundColor=none;align=center;verticalAlign=middle;strokeWidth=3;" parent="1" vertex="1">
          <mxGeometry x="1083.6299999999999" y="411" width="78.76" height="30" as="geometry" />
        </mxCell>
        <mxCell id="MEt0MIwIxQcFvyBTdbw6-36" style="edgeStyle=orthogonalEdgeStyle;shape=connector;curved=0;rounded=0;orthogonalLoop=1;jettySize=auto;html=1;exitX=1;exitY=0.5;exitDx=0;exitDy=0;labelBackgroundColor=default;strokeColor=#666666;strokeWidth=3;align=center;verticalAlign=middle;fontFamily=Helvetica;fontSize=11;fontColor=default;endArrow=openThin;endFill=0;" parent="1" source="MEt0MIwIxQcFvyBTdbw6-46" edge="1">
          <mxGeometry relative="1" as="geometry">
            <mxPoint x="1513" y="426" as="targetPoint" />
            <mxPoint x="1499.000000000001" y="426" as="sourcePoint" />
            <Array as="points" />
          </mxGeometry>
        </mxCell>
        <mxCell id="MEt0MIwIxQcFvyBTdbw6-37" value="&lt;b style=&quot;border-color: var(--border-color); color: rgb(51, 51, 51);&quot;&gt;&lt;font style=&quot;border-color: var(--border-color);&quot; color=&quot;#666666&quot;&gt;name:&lt;/font&gt;&lt;/b&gt;" style="rounded=1;whiteSpace=wrap;html=1;strokeColor=#666666;fontFamily=Helvetica;fontSize=12;fontColor=#143642;fillColor=#ffffff;arcSize=50;fontStyle=0;shadow=0;labelBackgroundColor=none;verticalAlign=middle;strokeWidth=3;" parent="1" vertex="1">
          <mxGeometry x="1181.69" y="411" width="55.31" height="30" as="geometry" />
        </mxCell>
        <mxCell id="MEt0MIwIxQcFvyBTdbw6-38" style="edgeStyle=orthogonalEdgeStyle;shape=connector;curved=0;rounded=0;orthogonalLoop=1;jettySize=auto;html=1;exitX=1;exitY=0.5;exitDx=0;exitDy=0;labelBackgroundColor=default;strokeColor=#666666;strokeWidth=3;align=center;verticalAlign=middle;fontFamily=Helvetica;fontSize=11;fontColor=default;endArrow=openThin;endFill=0;" parent="1" source="MEt0MIwIxQcFvyBTdbw6-35" target="MEt0MIwIxQcFvyBTdbw6-37" edge="1">
          <mxGeometry relative="1" as="geometry">
            <Array as="points">
              <mxPoint x="1193" y="426" />
              <mxPoint x="1193" y="426" />
            </Array>
          </mxGeometry>
        </mxCell>
        <mxCell id="MEt0MIwIxQcFvyBTdbw6-39" value="&lt;font size=&quot;1&quot; color=&quot;#666666&quot;&gt;&lt;b style=&quot;font-size: 12px;&quot;&gt;Application&lt;/b&gt;&lt;/font&gt;" style="text;html=1;strokeColor=none;fillColor=none;align=center;verticalAlign=middle;whiteSpace=wrap;rounded=0;fontSize=11;fontFamily=Helvetica;fontColor=#333333;" parent="1" vertex="1">
          <mxGeometry x="1006.39" y="401" width="60" height="30" as="geometry" />
        </mxCell>
        <mxCell id="MEt0MIwIxQcFvyBTdbw6-42" value="" style="edgeStyle=orthogonalEdgeStyle;shape=connector;curved=0;rounded=0;orthogonalLoop=1;jettySize=auto;html=1;exitX=1;exitY=0.5;exitDx=0;exitDy=0;labelBackgroundColor=default;strokeColor=#666666;strokeWidth=3;align=center;verticalAlign=middle;fontFamily=Helvetica;fontSize=11;fontColor=default;endArrow=openThin;endFill=0;" parent="1" source="MEt0MIwIxQcFvyBTdbw6-37" target="MEt0MIwIxQcFvyBTdbw6-41" edge="1">
          <mxGeometry relative="1" as="geometry">
            <mxPoint x="1512.69" y="426" as="targetPoint" />
            <mxPoint x="1253" y="426" as="sourcePoint" />
            <Array as="points">
              <mxPoint x="1253" y="426" />
              <mxPoint x="1253" y="426" />
            </Array>
          </mxGeometry>
        </mxCell>
        <mxCell id="MEt0MIwIxQcFvyBTdbw6-45" style="edgeStyle=orthogonalEdgeStyle;shape=connector;curved=0;rounded=1;orthogonalLoop=1;jettySize=auto;html=1;labelBackgroundColor=default;strokeColor=#666666;strokeWidth=3;align=center;verticalAlign=middle;fontFamily=Helvetica;fontSize=11;fontColor=default;endArrow=none;endFill=0;" parent="1" source="MEt0MIwIxQcFvyBTdbw6-41" edge="1">
          <mxGeometry relative="1" as="geometry">
            <mxPoint x="1503" y="426" as="targetPoint" />
            <Array as="points">
              <mxPoint x="1316" y="426" />
              <mxPoint x="1316" y="451" />
              <mxPoint x="1493" y="451" />
              <mxPoint x="1493" y="426" />
            </Array>
          </mxGeometry>
        </mxCell>
        <mxCell id="MEt0MIwIxQcFvyBTdbw6-41" value="&lt;b style=&quot;border-color: var(--border-color); color: rgb(51, 51, 51);&quot;&gt;&lt;font style=&quot;border-color: var(--border-color);&quot; color=&quot;#666666&quot;&gt;String&lt;/font&gt;&lt;/b&gt;" style="ellipse;whiteSpace=wrap;html=1;rounded=1;labelBackgroundColor=none;strokeColor=#666666;fontFamily=Helvetica;fontSize=12;fontColor=default;fillColor=default;container=0;strokeWidth=3;" parent="1" vertex="1">
          <mxGeometry x="1257.17" y="411" width="50.83" height="30" as="geometry" />
        </mxCell>
        <mxCell id="MEt0MIwIxQcFvyBTdbw6-44" value="" style="edgeStyle=orthogonalEdgeStyle;shape=connector;curved=0;rounded=0;orthogonalLoop=1;jettySize=auto;html=1;exitX=1;exitY=0.5;exitDx=0;exitDy=0;labelBackgroundColor=default;strokeColor=#666666;strokeWidth=3;align=center;verticalAlign=middle;fontFamily=Helvetica;fontSize=11;fontColor=default;endArrow=openThin;endFill=0;" parent="1" source="MEt0MIwIxQcFvyBTdbw6-41" target="MEt0MIwIxQcFvyBTdbw6-43" edge="1">
          <mxGeometry relative="1" as="geometry">
            <mxPoint x="1512.69" y="426" as="targetPoint" />
            <mxPoint x="1323" y="426" as="sourcePoint" />
            <Array as="points">
              <mxPoint x="1323" y="426" />
              <mxPoint x="1323" y="426" />
            </Array>
          </mxGeometry>
        </mxCell>
        <mxCell id="MEt0MIwIxQcFvyBTdbw6-43" value="&lt;b style=&quot;border-color: var(--border-color); color: rgb(51, 51, 51);&quot;&gt;&lt;font style=&quot;border-color: var(--border-color);&quot; color=&quot;#666666&quot;&gt;description:&lt;/font&gt;&lt;/b&gt;" style="rounded=1;whiteSpace=wrap;html=1;strokeColor=#666666;fontFamily=Helvetica;fontSize=12;fontColor=#143642;fillColor=#ffffff;arcSize=50;fontStyle=0;shadow=0;labelBackgroundColor=none;verticalAlign=middle;strokeWidth=3;" parent="1" vertex="1">
          <mxGeometry x="1332" y="411" width="85" height="30" as="geometry" />
        </mxCell>
        <mxCell id="MEt0MIwIxQcFvyBTdbw6-47" value="" style="edgeStyle=orthogonalEdgeStyle;shape=connector;curved=0;rounded=0;orthogonalLoop=1;jettySize=auto;html=1;exitX=1;exitY=0.5;exitDx=0;exitDy=0;labelBackgroundColor=default;strokeColor=#666666;strokeWidth=3;align=center;verticalAlign=middle;fontFamily=Helvetica;fontSize=11;fontColor=default;endArrow=openThin;endFill=0;" parent="1" source="MEt0MIwIxQcFvyBTdbw6-43" target="MEt0MIwIxQcFvyBTdbw6-46" edge="1">
          <mxGeometry relative="1" as="geometry">
            <mxPoint x="1512.69" y="426" as="targetPoint" />
            <mxPoint x="1433" y="426" as="sourcePoint" />
            <Array as="points">
              <mxPoint x="1433" y="426" />
              <mxPoint x="1433" y="426" />
            </Array>
          </mxGeometry>
        </mxCell>
        <mxCell id="MEt0MIwIxQcFvyBTdbw6-46" value="&lt;b style=&quot;border-color: var(--border-color); color: rgb(51, 51, 51);&quot;&gt;&lt;font style=&quot;border-color: var(--border-color);&quot; color=&quot;#666666&quot;&gt;String&lt;/font&gt;&lt;/b&gt;" style="ellipse;whiteSpace=wrap;html=1;rounded=1;labelBackgroundColor=none;strokeColor=#666666;fontFamily=Helvetica;fontSize=12;fontColor=default;fillColor=default;container=0;strokeWidth=3;" parent="1" vertex="1">
          <mxGeometry x="1434" y="411" width="54" height="30" as="geometry" />
        </mxCell>
        <mxCell id="MEt0MIwIxQcFvyBTdbw6-48" value="&lt;b style=&quot;border-color: var(--border-color); color: rgb(51, 51, 51); font-family: Helvetica; text-align: center;&quot;&gt;&lt;font style=&quot;border-color: var(--border-color);&quot; color=&quot;#666666&quot;&gt;&amp;nbsp; &amp;nbsp; &amp;nbsp;Legend&lt;/font&gt;&lt;/b&gt;" style="text;html=1;align=left;verticalAlign=middle;whiteSpace=wrap;rounded=1;fontFamily=Courier New;perimeterSpacing=6;shadow=0;fillColor=#ffffff;fontColor=#143642;strokeColor=#666666;labelBackgroundColor=none;container=0;strokeWidth=3;" parent="1" vertex="1">
          <mxGeometry x="1002.3899999999999" y="461" width="510.61" height="53" as="geometry" />
        </mxCell>
        <mxCell id="MEt0MIwIxQcFvyBTdbw6-49" value="&lt;b style=&quot;border-color: var(--border-color); color: rgb(51, 51, 51);&quot;&gt;&lt;font style=&quot;border-color: var(--border-color);&quot; color=&quot;#666666&quot;&gt;expr&lt;/font&gt;&lt;/b&gt;" style="ellipse;whiteSpace=wrap;html=1;rounded=1;labelBackgroundColor=none;strokeColor=#666666;fontFamily=Helvetica;fontSize=12;fontColor=default;fillColor=default;container=0;strokeWidth=3;" parent="1" vertex="1">
          <mxGeometry x="1319.33" y="471" width="71.66666666666667" height="33" as="geometry" />
        </mxCell>
        <mxCell id="MEt0MIwIxQcFvyBTdbw6-50" value="&lt;font color=&quot;#666666&quot;&gt;&lt;b&gt;Variable&lt;/b&gt;&lt;/font&gt;" style="shape=hexagon;perimeter=hexagonPerimeter2;whiteSpace=wrap;html=1;fixedSize=1;strokeColor=#666666;fontColor=#143642;fillColor=default;container=0;strokeWidth=3;" parent="1" vertex="1">
          <mxGeometry x="1203.94" y="471" width="107.5" height="33" as="geometry" />
        </mxCell>
        <mxCell id="MEt0MIwIxQcFvyBTdbw6-51" value="&lt;p&gt;&lt;b style=&quot;border-color: var(--border-color); color: rgb(51, 51, 51);&quot;&gt;&lt;font style=&quot;border-color: var(--border-color);&quot; color=&quot;#666666&quot;&gt;Keyword&lt;/font&gt;&lt;/b&gt;&lt;br&gt;&lt;/p&gt;" style="rounded=1;whiteSpace=wrap;html=1;arcSize=50;fontStyle=0;fillColor=#ffffff;strokeColor=#666666;labelBackgroundColor=none;fontColor=#143642;container=0;strokeWidth=3;" parent="1" vertex="1">
          <mxGeometry x="1082.996111111111" y="471" width="107.5" height="33" as="geometry" />
        </mxCell>
        <mxCell id="MEt0MIwIxQcFvyBTdbw6-52" value="&lt;b style=&quot;border-color: var(--border-color); color: rgb(51, 51, 51);&quot;&gt;&lt;font style=&quot;border-color: var(--border-color);&quot; color=&quot;#666666&quot;&gt;Go To&lt;/font&gt;&lt;/b&gt;" style="rounded=1;whiteSpace=wrap;html=1;strokeColor=#666666;fontFamily=Helvetica;fontSize=12;fontColor=#143642;fillColor=#FFFFFF;arcSize=0;fontStyle=0;shadow=0;labelBackgroundColor=none;container=0;strokeWidth=3;" parent="1" vertex="1">
          <mxGeometry x="1402.995" y="471" width="95" height="33" as="geometry" />
        </mxCell>
      </root>
    </mxGraphModel>
  </diagram>
</mxfile>
